<?xml version="1.0" encoding="UTF-8"?>
<svg width="26px" height="30px" viewBox="0 0 26 30" version="1.1" xmlns="http://www.w3.org/2000/svg" xmlns:xlink="http://www.w3.org/1999/xlink">
    <!-- Generator: Sketch 54.1 (76490) - https://sketchapp.com -->
    <title>Group</title>
    <desc>Created with Sketch.</desc>
    <g id="Symbols" stroke="none" stroke-width="1" fill="none" fill-rule="evenodd">
        <g id="selling-pts-blue" transform="translate(-18.000000, -16.000000)" stroke="#02B3E4" stroke-width="2">
            <g id="Group" transform="translate(19.000000, 17.000000)">
                <path d="M7.76660309,16 C6.53027213,16 5.79807734,16 5.57001874,16 C3.39048308,16 0.126101314,17.5552727 1.21717904,21.2306047 C2.34346619,24.686589 6.65943907,24.4730581 8,22.9436947" id="Path-48" stroke-linecap="round"></path>
                <path d="M22.7666031,16 C21.5302721,16 20.7980773,16 20.5700187,16 C18.3904831,16 15.1261013,17.5552727 16.217179,21.2306047 C17.3434662,24.686589 21.6594391,24.4730581 23,22.9436947" id="Path-48" stroke-linecap="round" transform="translate(19.500000, 20.000000) scale(-1, 1) translate(-19.500000, -20.000000) "></path>
                <path d="M12,26 L12,2" id="Path-49"></path>
                <path d="M6,24 C6,28.294883 12,28.4396373 12,25.7558716" id="Path-50"></path>
                <path d="M12,24 C12,28.294883 17.7828348,28.4396373 17.7828348,25.7558716" id="Path-50" transform="translate(14.891417, 25.771941) scale(-1, 1) translate(-14.891417, -25.771941) "></path>
                <path d="M7.76660309,4 C6.53027213,4 5.79807734,4 5.57001874,4 C3.39048308,4 0.126101314,5.55527275 1.21717904,9.23060471 C2.34346619,12.686589 6.65943907,12.4730581 8,10.9436947" id="Path-48-Copy" stroke-linecap="round" transform="translate(4.500000, 8.000000) scale(1, -1) translate(-4.500000, -8.000000) "></path>
                <path d="M22.7666031,4 C21.5302721,4 20.7980773,4 20.5700187,4 C18.3904831,4 15.1261013,5.55527275 16.217179,9.23060471 C17.3434662,12.686589 21.6594391,12.4730581 23,10.9436947" id="Path-48-Copy-2" stroke-linecap="round" transform="translate(19.500000, 8.000000) scale(-1, -1) translate(-19.500000, -8.000000) "></path>
                <path d="M6,0.456117405 C6,4.75100044 12,4.89575467 12,2.21198903" id="Path-50-Copy" transform="translate(9.000000, 2.228059) scale(1, -1) translate(-9.000000, -2.228059) "></path>
                <path d="M12,0.456117405 C12,4.75100044 17.7828348,4.89575467 17.7828348,2.21198903" id="Path-50-Copy-2" transform="translate(14.891417, 2.228059) scale(-1, -1) translate(-14.891417, -2.228059) "></path>
                <path d="M11.9906487,4.78977273 C11.9906487,4.8375778 11.990444,5.60785234 11.9900297,5.65469899 C11.9767786,7.1531522 10.7453835,8.52520088 9.35748106,8.52520088 C8.43221275,8.52520088 7.57709912,8.52520088 6.79214015,8.52520088" id="Path-51" stroke-linecap="round"></path>
                <path d="M17.1985085,5 C17.1985085,5.04780507 17.1983038,5.66243365 17.1978895,5.7092803 C17.1846384,7.20773351 15.9532434,8.5797822 14.5653409,8.5797822 C13.6400726,8.5797822 12.784959,8.5797822 12,8.5797822" id="Path-51" stroke-linecap="round" transform="translate(14.599254, 6.789891) scale(-1, 1) translate(-14.599254, -6.789891) "></path>
                <path d="M11.9906487,19.4747991 C11.9906487,19.5226042 11.990444,20.2928787 11.9900297,20.3397254 C11.9767786,21.8381786 10.7453835,23.2102273 9.35748106,23.2102273 C8.43221275,23.2102273 7.57709912,23.2102273 6.79214015,23.2102273" id="Path-51" stroke-linecap="round" transform="translate(9.391394, 21.342513) scale(1, -1) translate(-9.391394, -21.342513) "></path>
                <path d="M17.1985085,19.4202178 C17.1985085,19.4680229 17.1983038,20.0826515 17.1978895,20.1294981 C17.1846384,21.6279513 15.9532434,23 14.5653409,23 C13.6400726,23 12.784959,23 12,23" id="Path-51" stroke-linecap="round" transform="translate(14.599254, 21.210109) scale(-1, -1) translate(-14.599254, -21.210109) "></path>
                <path d="M2.82881434,16.7474724 C1.28205423,16.7474724 0.308671207,15.0369942 0.295230212,13.9676585 C0.28145831,12.8719966 1.2667739,11.1878447 2.82881434,11.1878447" id="Path-52"></path>
                <path d="M23.8288143,16.7474724 C22.2820542,16.7474724 21.3086712,15.0369942 21.2952302,13.9676585 C21.2814583,12.8719966 22.2667739,11.1878447 23.8288143,11.1878447" id="Path-52" transform="translate(22.561951, 13.967659) scale(-1, 1) translate(-22.561951, -13.967659) "></path>
            </g>
        </g>
    </g>
</svg>